<svg width="18" height="18" viewBox="0 0 18 18" fill="none" xmlns="http://www.w3.org/2000/svg">
<path d="M8.3589 0C5.26945 0.347048 2.31597 3.17889 2.31597 6.61002V11.4669C2.30165 12.5563 0.841905 13.7782 0.281976 14.1574C0.0494181 14.3148 -0.0543386 14.6064 0.0279512 14.8748C0.110241 15.1431 0.358899 15.3274 0.639758 15.3274H5.44119C5.73278 16.5903 6.78287 18 8.99933 18C10.96 18 12.0101 16.5886 12.3017 15.3274H17.3607C17.6415 15.3274 17.8902 15.1431 17.9725 14.8748C18.0548 14.6064 17.951 14.3148 17.7185 14.1574C17.1568 13.7782 15.6988 12.5581 15.6845 11.4758V6.61181C15.6827 3.17889 12.7292 0.347048 9.63976 0H8.36069H8.3589ZM8.99933 16.7209C7.55747 16.7209 6.78108 15.8497 6.78108 15.3274H10.96C10.96 15.8748 10.4591 16.7209 8.99933 16.7209ZM14.4018 6.61002V11.483C14.4144 12.4741 15.0172 13.3757 15.6415 14.0465H2.35532C2.97965 13.3739 3.58251 12.4687 3.59682 11.4741V6.61002C3.59682 3.65116 6.31597 1.24329 8.99933 1.24329C11.6827 1.24329 14.4018 3.65116 14.4018 6.61002Z" fill="#67688C"/>
</svg>
