<svg width="18" height="18" viewBox="0 0 18 18" fill="none" xmlns="http://www.w3.org/2000/svg">
<path d="M1.65474 18.0008H14.424C15.3363 18.0008 16.0787 17.2583 16.0787 16.3459V9.143C16.0787 8.81739 15.814 8.55261 15.4884 8.55261C15.1628 8.55261 14.898 8.81739 14.898 9.143V16.3459C14.898 16.6071 14.6852 16.82 14.424 16.82H1.65474C1.39356 16.82 1.18068 16.6071 1.18068 16.3459V3.1925C1.18068 2.9313 1.39356 2.71839 1.65474 2.71839H8.85689C9.18247 2.71839 9.44723 2.45361 9.44723 2.128C9.44723 1.80238 9.18247 1.5376 8.85689 1.5376H1.65474C0.742397 1.53939 0 2.28186 0 3.1925V16.3459C0 17.2583 0.742397 18.0008 1.65474 18.0008Z" fill="#2E3BED"/>
<path d="M16.3971 0.390468C15.8765 -0.130156 14.9713 -0.130156 14.4525 0.390468L13.2003 1.64283L5.90872 8.93515C5.90872 8.93515 5.89978 8.94946 5.89441 8.95661C5.85327 9.00134 5.81928 9.05323 5.79244 9.10869C5.78708 9.11942 5.77992 9.13016 5.77634 9.14089C5.77455 9.14626 5.77098 9.14984 5.76919 9.1552L4.50443 12.7298C4.4275 12.9445 4.48296 13.1824 4.64396 13.3435C4.75666 13.4562 4.90693 13.517 5.06078 13.517C5.12697 13.517 5.19316 13.5063 5.25756 13.483L8.83359 12.2181C8.83359 12.2181 8.84432 12.211 8.85148 12.2092C8.864 12.2038 8.87294 12.1984 8.88546 12.1931C8.94092 12.168 8.98922 12.134 9.03394 12.0929C9.0411 12.0875 9.04826 12.0857 9.05541 12.0786L16.347 4.78625L17.5992 3.53389C17.8586 3.27448 18.0017 2.92918 18.0017 2.56063C18.0017 2.19208 17.8586 1.84857 17.5992 1.58737L16.3989 0.38689L16.3971 0.390468ZM6.03037 11.9587L6.57062 10.4326L7.55631 11.4184L6.03037 11.9587ZM16.762 2.70018L15.9284 3.53389L14.4525 2.0579L15.2862 1.22418C15.3846 1.12578 15.4633 1.12578 15.5617 1.22418L16.762 2.42466C16.8121 2.47475 16.8193 2.532 16.8193 2.56242C16.8193 2.59283 16.8121 2.65008 16.762 2.70018Z" fill="#2E3BED"/>
</svg>
