<svg width="18" height="18" viewBox="0 0 18 18" fill="none" xmlns="http://www.w3.org/2000/svg">
<path d="M17.1152 13.0797H16.5543V7.4072C16.5543 4.76079 15.1145 2.31547 12.7773 0.992322C10.44 -0.330774 7.56024 -0.330774 5.22297 0.992322C2.8857 2.31564 1.44572 4.76095 1.44572 7.4072V13.0792H0.884783C0.56864 13.0792 0.276664 13.2445 0.118564 13.513C-0.0395355 13.7814 -0.0395074 14.1123 0.118564 14.3807C0.276636 14.6492 0.568628 14.8145 0.884783 14.8145H5.67544C5.70244 15.9613 6.34195 17.0097 7.35934 17.5757C8.3769 18.1414 9.62282 18.1414 10.6404 17.5757C11.6578 17.0097 12.2973 15.9613 12.3243 14.8145H17.115C17.4311 14.8145 17.7233 14.6492 17.8814 14.3807C18.0395 14.1123 18.0395 13.7814 17.8814 13.513C17.7234 13.2445 17.4314 13.0797 17.1152 13.0797ZM3.21559 7.4072C3.21559 5.38078 4.31813 3.50834 6.10786 2.49502C7.8976 1.48192 10.1025 1.48192 11.8923 2.49502C13.682 3.50834 14.7846 5.38078 14.7846 7.4072V13.0792H3.2157L3.21559 7.4072ZM9.00003 16.2695C8.60046 16.2674 8.21689 16.1156 7.92801 15.8452C7.63887 15.5748 7.46631 15.2065 7.44523 14.8153H10.5546C10.5338 15.2065 10.361 15.5748 10.0718 15.8452C9.78293 16.1156 9.39935 16.2674 9.00003 16.2695Z" fill="#67688C"/>
</svg>
 