<svg xmlns="http://www.w3.org/2000/svg" id="Layer_2" data-name="Layer 2" viewBox="0 0 72.75 72.75">
  <defs>
    <style>
      .cls-1 {
        fill: #ffd1ba;
      }

      .cls-2 {
        fill: #fe7026;
      }
    </style>
  </defs>
  <g id="Layer_1-2" data-name="Layer 1">
    <g>
      <path class="cls-1" d="M72.75,36.37c0,20.09-16.29,36.37-36.37,36.37S0,56.46,0,36.37,16.29,0,36.37,0s36.37,16.29,36.37,36.37"/>
      <path class="cls-2" d="M36.37,16.94c-10.73,0-19.43,8.7-19.43,19.43s8.7,19.43,19.43,19.43,19.43-8.7,19.43-19.43c-.01-10.73-8.7-19.42-19.43-19.43M50.78,42.2h-13.12l-5.33-12.43c-.41-.99-1.54-1.47-2.54-1.06s-1.47,1.54-1.06,2.54c0,.02.02.03.02.05l4.67,10.89h-11.46c-3.23-7.95.59-17.02,8.55-20.26,7.96-3.23,17.02.59,20.26,8.55,1.53,3.75,1.53,7.96,0,11.71"/>
    </g>
  </g>
</svg>