<svg width="10" height="12" viewBox="0 0 10 12" fill="none" xmlns="http://www.w3.org/2000/svg">
<path fill-rule="evenodd" clip-rule="evenodd" d="M5 0C5.14732 0 5.28861 0.0602 5.39278 0.167357C5.49695 0.274514 5.55548 0.419849 5.55548 0.571392V9.79825L9.05054 6.2019C9.15485 6.09461 9.29631 6.03434 9.44382 6.03434C9.59133 6.03434 9.73279 6.09461 9.8371 6.2019C9.9414 6.3092 10 6.45472 10 6.60645C10 6.75818 9.9414 6.9037 9.8371 7.011L5.39328 11.5821C5.34168 11.6353 5.28038 11.6776 5.2129 11.7064C5.14541 11.7352 5.07306 11.75 5 11.75C4.92694 11.75 4.85459 11.7352 4.7871 11.7064C4.71962 11.6776 4.65832 11.6353 4.60672 11.5821L0.162901 7.011C0.0585972 6.9037 -3.4754e-09 6.75818 0 6.60645C3.47541e-09 6.45472 0.0585972 6.3092 0.162901 6.2019C0.267205 6.09461 0.408671 6.03434 0.556179 6.03434C0.703687 6.03434 0.845154 6.09461 0.949458 6.2019L4.44452 9.79825V0.571392C4.44452 0.419849 4.50305 0.274514 4.60722 0.167357C4.71139 0.0602 4.85268 0 5 0Z" fill="#67688C"/>
</svg>
