<?xml version="1.0" encoding="UTF-8"?>
<svg id="Layer_1" xmlns="http://www.w3.org/2000/svg" version="1.1" viewBox="0 0 1000 411.1">
  <!-- Generator: Adobe Illustrator 29.3.1, SVG Export Plug-In . SVG Version: 2.1.0 Build 151)  -->
  <defs>
    <style>
      .st0 {
        fill: #fff;
      }
    </style>
  </defs>
  <path class="st0" d="M993,104.5h-91.6c-2.8,0-5.1,2.3-5.1,5.1v35.6c0,2.8,2.3,4.6,5.1,5.1h49v173c0,2.8,2.8,5.1,5.6,5.1h37c2.8,0,5.6-2.3,5.6-5.1V109.6c0-2.8-2.8-5.1-5.6-5.1Z"/>
  <path class="st0" d="M880.9,3.3c-.6-.6-1.4-1-2.3-1.3h-61.9c-3.5,0-6.5,1.8-8.2,4.5-1,1.5-1.5,3.3-1.5,5.2v10.5c0,5.4-4.4,9.7-9.7,9.7h-17.6c-.7,0-1.4,0-2.1.2-4.4,1-7.6,4.8-7.6,9.5v12c0,.1,0,.2,0,.3v50.4h-46.6c-2.8,0-5.1,2.3-5.1,5.1v36c0,2.8,2.3,5.1,5.1,5.5h46.3v172.2c0,2.8,2.3,5.1,5.1,5.1h37.5c2.8,0,5.1-2.3,5.1-5.1v-173h49.9c2.8,0,5.6-2.3,5.6-5.1v-35.6c0-2.8-2.8-5.1-5.6-5.1h-49.7v-32c0-.6,0-1.1,0-1.6v-18.6c0-5.4,4.4-9.7,9.7-9.7h17.8s0,0,0,0c.1,0,.2,0,.3,0h30.6c3.9,0,7-3.1,7-7V7.9c0-1.3-.3-2.4-.9-3.4-.3-.5-.6-.9-1-1.3Z"/>
  <path class="st0" d="M448.9,323.2c0,2.8-2.8,5.1-5.5,5.1h-37c-2.8,0-5.5-2.3-5.5-5.1v-48.1l-17.6,22.7c-15.7,19.9-31.5,35.1-66.6,35.1h-8.8c-43.9,0-65.7-25.4-65.7-68.9v-79.6c0-57.8,35.1-85.1,84.6-85.1h5.1c26.4,0,54.1,11.1,68.9,19.4V7.8c0-2.8,2.8-5.6,5.5-5.6h37c2.8,0,5.5,2.8,5.5,5.6v315.4ZM400.8,158.6c-13-7.9-37-18.5-62.9-18.5h-5.6c-26.4,0-42.6,15.3-42.6,43.9v81.9c0,16.2,10.2,26.4,25,26.4h3.2c19,0,29.1-11.6,44.4-28.2l38.4-42.6v-62.9Z"/>
  <path class="st0" d="M486.6,109.5c0-2.8,2.8-5.1,5.5-5.1h36.5c2.8,0,5.5,2.3,5.5,5.1v154.5c0,17.1,9.3,28.2,25,28.2h3.2c17.1,0,27.3-12,40.7-27.8l37.5-43.9v-111c0-2.8,2.3-5.1,5.1-5.1h37.9c2.8,0,5.1,2.3,5.1,5.1v213.7c0,56-37.5,87.9-105.5,87.9h-84.8c-2.8,0-5.1-2.3-5.1-5.1v-30.1c0-2.8,2.3-5.6,5.1-5.6h77.8c37.9,0,64.3-12,64.3-47.2v-46.3l-20.3,25.9c-14.8,18.5-30.5,30.1-60.6,30.1h-7.4c-43.9,0-65.7-25.4-65.7-68.9V109.5Z"/>
  <g>
    <path class="st0" d="M165,97.4H42.8c-5.6,0-10.1,4.5-10.1,10.1v10.9c0,5.6-4.5,10.1-10.1,10.1h-10.9c-5.6,0-10.1,4.5-10.1,10.1v148.7c0,5.6,4.5,10.1,10.1,10.1h10.9c5.6,0,10.1,4.5,10.1,10.1v10.9c0,5.6,4.5,10.1,10.1,10.1h112.6c5.6,0,10.1-4.5,10.1-10.1v-21.7c0-5.6-4.5-10.1-10.1-10.1H53.7c-5.6,0-10.1-4.5-10.1-10.1v-34.9c0-5.6,4.5-10.1,10.1-10.1h142.3c5.6,0,10.1-4.5,10.1-10.1v-82.8c0-5.6-4.5-10.1-10.1-10.1h-10.9c-5.6,0-10.1-4.5-10.1-10.1v-10.9c0-5.6-4.5-10.1-10.1-10.1ZM154.1,189.5H53.7c-5.6,0-10.1-4.5-10.1-10.1v-30c0-5.6,4.5-10.1,10.1-10.1h100.4c5.6,0,10.1,4.5,10.1,10.1v30c0,5.6-4.5,10.1-10.1,10.1Z"/>
    <rect class="st0" x="164.2" y="247" width="41.9" height="40.2" rx="10.1" ry="10.1"/>
  </g>
  <rect class="st0" x="946.3" y="9.3" width="53.7" height="51.5" rx="12.9" ry="12.9"/>
</svg>