<?xml version="1.0" encoding="UTF-8"?>
<svg id="Layer_2" xmlns="http://www.w3.org/2000/svg" viewBox="0 0 144 144">
  <defs>
    <style>
      .cls-1 {
        fill: #2e3bed;
      }
    </style>
  </defs>
  <g id="Layer_1-2">
    <g>
      <path class="cls-1" d="M105.05,9.52H38.95c-3.02,0-5.46,2.45-5.46,5.46v5.88c0,3.02-2.45,5.46-5.46,5.46h-5.88c-3.02,0-5.46,2.45-5.46,5.46v80.44c0,3.02,2.45,5.46,5.46,5.46h5.88c3.02,0,5.46,2.45,5.46,5.46v5.88c0,3.02,2.45,5.46,5.46,5.46h60.9c3.02,0,5.46-2.45,5.46-5.46v-11.76c0-3.02-2.45-5.46-5.46-5.46h-55.03c-3.02,0-5.46-2.45-5.46-5.46v-18.87c0-3.02,2.45-5.46,5.46-5.46h77.02c3.02,0,5.46-2.45,5.46-5.46V31.77c0-3.02-2.45-5.46-5.46-5.46h-5.88c-3.02,0-5.46-2.45-5.46-5.46v-5.88c0-3.02-2.45-5.46-5.46-5.46ZM99.17,59.34h-54.34c-3.02,0-5.46-2.45-5.46-5.46v-16.23c0-3.02,2.45-5.46,5.46-5.46h54.34c3.02,0,5.46,2.45,5.46,5.46v16.23c0,3.02-2.45,5.46-5.46,5.46Z"/>
      <rect class="cls-1" x="104.63" y="90.46" width="22.68" height="21.77" rx="5.46" ry="5.46"/>
    </g>
  </g>
</svg>