<svg width="8" height="10" viewBox="0 0 8 10" fill="none" xmlns="http://www.w3.org/2000/svg">
<path fill-rule="evenodd" clip-rule="evenodd" d="M4 0C4.11364 0 4.22263 0.0460886 4.30299 0.128127C4.38335 0.210165 4.42849 0.321432 4.42849 0.437451V5.50576L6.26759 3.62734C6.30743 3.58667 6.35473 3.55441 6.40678 3.5324C6.45883 3.51039 6.51462 3.49906 6.57096 3.49906C6.62731 3.49906 6.6831 3.51039 6.73515 3.5324C6.7872 3.55441 6.8345 3.58667 6.87434 3.62734C6.91418 3.66802 6.94578 3.7163 6.96734 3.76944C6.9889 3.82258 7 3.87954 7 3.93706C7 3.99458 6.9889 4.05154 6.96734 4.10468C6.94578 4.15782 6.91418 4.2061 6.87434 4.24678L4.30337 6.87148C4.26357 6.91222 4.21629 6.94454 4.16423 6.96659C4.11217 6.98865 4.05636 7 4 7C3.94364 7 3.88783 6.98865 3.83577 6.96659C3.78371 6.94454 3.73643 6.91222 3.69663 6.87148L1.12566 4.24678C1.08582 4.2061 1.05422 4.15782 1.03266 4.10468C1.0111 4.05154 1 3.99458 1 3.93706C1 3.87954 1.0111 3.82258 1.03266 3.76944C1.05422 3.7163 1.08582 3.66802 1.12566 3.62734C1.20612 3.5452 1.31525 3.49906 1.42904 3.49906C1.48538 3.49906 1.54117 3.51039 1.59322 3.5324C1.64527 3.55441 1.69257 3.58667 1.73241 3.62734L3.57151 5.50576V0.437451C3.57151 0.321432 3.61665 0.210165 3.69701 0.128127C3.77737 0.0460886 3.88636 0 4 0Z" fill="#67688C"/>
<path d="M1 9H7" stroke="#67688C" stroke-linecap="round"/>
</svg>
