<svg width="500" height="800" viewBox="0 0 500 800" fill="none" xmlns="http://www.w3.org/2000/svg">
<path d="M395.203 212.489C453.081 212.489 500 164.922 500 106.245C500 47.5674 453.081 0 395.203 0C337.325 0 290.406 47.5674 290.406 106.245C290.406 164.922 337.325 212.489 395.203 212.489Z" fill="#66CBFF"/>
<path d="M500 454.612V287.407C500 258.553 476.929 235.15 448.455 235.15H319.599C314.245 235.15 309.087 234.322 304.234 232.789C283.248 226.175 268.017 206.333 268.017 182.881V52.257C268.017 23.3902 244.933 0 216.472 0H51.545C23.0715 0 0 23.3902 0 52.257V219.462C0 248.316 23.0715 271.719 51.545 271.719H180.401C185.755 271.719 190.913 272.547 195.766 274.08C216.752 280.694 231.983 300.536 231.983 323.988V454.624C231.983 483.479 255.054 506.881 283.528 506.881H448.455C476.916 506.881 500 483.491 500 454.624" fill="#051FC2"/>
<path d="M0 335.547V758.894C0 781.592 18.145 800 40.5458 800H170.28C192.669 800 210.826 781.592 210.826 758.894V335.547C210.826 312.849 192.681 294.441 170.28 294.441H40.5458C18.145 294.441 0 312.849 0 335.547Z" fill="#8289F4"/>
<path d="M448.699 529.604H284.565C256.238 529.604 233.276 552.884 233.276 581.601V748.003C233.276 776.72 256.238 800 284.565 800H448.699C477.025 800 499.988 776.72 499.988 748.003V581.601C499.988 552.884 477.025 529.604 448.699 529.604Z" fill="#5862F1"/>
</svg>
