<svg width="18" height="18" viewBox="0 0 18 18" fill="none" xmlns="http://www.w3.org/2000/svg">
<path d="M11.6047 18H16.9267C17.5188 18 18 17.5188 18 16.9267V8.11091C18 7.8229 17.8819 7.54204 17.6744 7.33989L9.74776 0.305903C9.32737 -0.101968 8.67084 -0.101968 8.25224 0.305903L0.325581 7.34168C0.118068 7.54204 0 7.8229 0 8.11091V16.9267C0 17.5188 0.481216 18 1.07335 18H6.27549C6.60823 18 6.87835 17.7299 6.87835 17.3971V16.8193V12.7818C6.87835 12.449 7.14848 12.1789 7.48122 12.1789H10.4007C10.7335 12.1789 11.0036 12.449 11.0036 12.7818V17.3971C11.0036 17.7299 11.2737 18 11.6064 18H11.6047Z" fill="#2E3BED"/>
</svg>
