<svg width="18" height="18" viewBox="0 0 18 18" fill="none" xmlns="http://www.w3.org/2000/svg">
<path d="M11.5653 18H16.9284C17.5206 18 18.0018 17.5188 18.0018 16.9267V8.11091C18.0018 7.8229 17.8837 7.54204 17.6762 7.33989L9.74776 0.305903C9.32737 -0.101968 8.67084 -0.101968 8.25224 0.305903L0.325581 7.34168C0.118068 7.54204 0 7.8229 0 8.11091V16.9267C0 17.5188 0.481216 18 1.07335 18H6.43649C6.87478 18 7.23077 17.644 7.23077 17.2057V16.8193V12.6869H10.7728V17.2075C10.7728 17.6458 11.1288 18.0018 11.5671 18.0018L11.5653 18ZM1.18068 8.15563L9 1.2254L16.8193 8.15563V16.8193H11.9517V12.0966C11.9517 11.771 11.6869 11.5063 11.3614 11.5063H6.63864C6.31306 11.5063 6.0483 11.771 6.0483 12.0966V16.8193H1.18068V8.15563Z" fill="#67688C"/>
</svg>
