<svg width="18" height="18" viewBox="0 0 18 18" fill="none" xmlns="http://www.w3.org/2000/svg">
<path d="M1.65474 17.9998H14.424C15.3363 17.9998 16.0787 17.2573 16.0787 16.3449V9.14203C16.0787 8.81641 15.814 8.55163 15.4884 8.55163C15.1628 8.55163 14.898 8.81641 14.898 9.14203V16.3449C14.898 16.6061 14.6852 16.819 14.424 16.819H1.65474C1.39356 16.819 1.18068 16.6061 1.18068 16.3449V3.19153C1.18068 2.93032 1.39356 2.71742 1.65474 2.71742H8.85689C9.18247 2.71742 9.44723 2.45263 9.44723 2.12702C9.44723 1.80141 9.18247 1.53662 8.85689 1.53662H1.65474C0.742397 1.53841 0 2.28088 0 3.19153V16.3449C0 17.2573 0.742397 17.9998 1.65474 17.9998Z" fill="#67688C"/>
<path d="M16.3971 0.38998C15.8765 -0.130644 14.9713 -0.130644 14.4525 0.38998L13.2003 1.64234L5.90872 8.93466C5.90872 8.93466 5.89978 8.94897 5.89441 8.95613C5.85327 9.00085 5.81928 9.05274 5.79244 9.1082C5.78708 9.11893 5.77992 9.12967 5.77634 9.1404C5.77455 9.14577 5.77098 9.14935 5.76919 9.15471L4.50443 12.7293C4.4275 12.944 4.48296 13.1819 4.64396 13.343C4.75666 13.4557 4.90693 13.5165 5.06078 13.5165C5.12697 13.5165 5.19316 13.5058 5.25756 13.4825L8.83359 12.2176C8.83359 12.2176 8.84432 12.2105 8.85148 12.2087C8.864 12.2033 8.87294 12.198 8.88546 12.1926C8.94092 12.1675 8.98922 12.1335 9.03394 12.0924C9.0411 12.087 9.04826 12.0852 9.05541 12.0781L16.347 4.78577L17.5992 3.53341C17.8586 3.27399 18.0017 2.92869 18.0017 2.56014C18.0017 2.19159 17.8586 1.84809 17.5992 1.58688L16.3989 0.386402L16.3971 0.38998ZM6.03037 11.9582L6.57062 10.4321L7.55631 11.4179L6.03037 11.9582ZM8.63681 10.8275L7.16096 9.35151L13.6171 2.89291L15.093 4.36891L8.63681 10.8275ZM16.762 2.69969L15.9284 3.53341L14.4525 2.05741L15.2862 1.22369C15.3846 1.12529 15.4633 1.12529 15.5617 1.22369L16.762 2.42417C16.8121 2.47427 16.8193 2.53152 16.8193 2.56193C16.8193 2.59235 16.8121 2.6496 16.762 2.69969Z" fill="#67688C"/>
</svg>