<svg width="72" height="72" viewBox="0 0 72 72" fill="none" xmlns="http://www.w3.org/2000/svg">
<g clip-path="url(#clip0_180_2304)">
<path d="M35.81 71.62C55.5873 71.62 71.62 55.5873 71.62 35.81C71.62 16.0327 55.5873 0 35.81 0C16.0327 0 0 16.0327 0 35.81C0 55.5873 16.0327 71.62 35.81 71.62Z" fill="#CDEFD4"/>
<path d="M35.81 20.1602C27.16 20.1602 20.16 27.1702 20.16 35.8102C20.16 44.4502 27.17 51.4602 35.81 51.4602C44.45 51.4602 51.46 44.4502 51.46 35.8102C51.46 27.1702 44.45 20.1602 35.81 20.1602ZM35.81 39.2102C33.94 39.2102 32.41 37.6902 32.41 35.8102C32.41 33.9302 33.93 32.4102 35.81 32.4102C37.69 32.4102 39.21 33.9402 39.21 35.8102C39.21 37.6802 37.69 39.2102 35.81 39.2102Z" fill="#63CC78"/>
</g>
<defs>
<clipPath id="clip0_180_2304">
<rect width="71.62" height="71.62" fill="white"/>
</clipPath>
</defs>
</svg>
