<svg width="14" height="14" viewBox="0 0 11 11" fill="none" xmlns="http://www.w3.org/2000/svg">
<path d="M10.3483 9.63929L8.295 7.58586C8.92116 6.8428 9.29965 5.88415 9.29965 4.83865C9.29965 2.48439 7.38427 0.568848 5.02984 0.568848C3.25704 0.568848 0.760254 1.89375 0.760254 4.83865C0.760254 7.19291 2.67563 9.10846 5.02984 9.10846C6.04195 9.10846 6.97268 8.75362 7.70529 8.16289L9.76511 10.2227C9.84567 10.3033 9.95117 10.3435 10.0567 10.3435C10.1623 10.3435 10.2679 10.3032 10.3482 10.2227C10.5096 10.0616 10.5096 9.80043 10.3483 9.63929ZM5.0301 8.61333C2.94872 8.61333 1.2553 6.91993 1.2553 4.83852C1.2553 2.23483 3.46282 1.06372 5.0301 1.06372C7.11149 1.06372 8.80491 2.75712 8.80491 4.83852C8.80474 6.91999 7.11134 8.61333 5.0301 8.61333Z" fill="#67688C" fill-opacity="0.7"/>
</svg>
    