<svg xmlns="http://www.w3.org/2000/svg" id="Layer_2" data-name="Layer 2" viewBox="0 0 72.75 72.75">
  <defs>
    <style>
      .cls-1 {
        fill: #ffa5e5;
      }

      .cls-2 {
        fill: #ffdbf5;
      }
    </style>
  </defs>
  <g id="Layer_1-2" data-name="Layer 1">
    <g>
      <path class="cls-2" d="M72.75,36.37c0,20.09-16.29,36.37-36.37,36.37S0,56.46,0,36.37,16.29,0,36.37,0s36.37,16.29,36.37,36.37"/>
      <path class="cls-1" d="M18.95,29.94v-8.71c0-.96.78-1.74,1.74-1.74h8.71c.96,0,1.74.78,1.74,1.74s-.78,1.74-1.74,1.74h-6.97v6.97c0,.96-.78,1.74-1.74,1.74s-1.74-.78-1.74-1.74M20.69,54.33h8.71c.96,0,1.74-.78,1.74-1.74s-.78-1.74-1.74-1.74h-6.97v-6.97c0-.96-.78-1.74-1.74-1.74s-1.74.78-1.74,1.74v8.71c0,.96.78,1.74,1.74,1.74M52.05,42.13c-.96,0-1.74.78-1.74,1.74v6.97h-6.97c-.96,0-1.74.78-1.74,1.74s.78,1.74,1.74,1.74h8.71c.96,0,1.74-.78,1.74-1.74v-8.71c0-.96-.78-1.74-1.74-1.74M52.05,19.49h-8.71c-.96,0-1.74.78-1.74,1.74s.78,1.74,1.74,1.74h6.97v6.97c0,.96.78,1.74,1.74,1.74s1.74-.78,1.74-1.74v-8.71c0-.96-.78-1.74-1.74-1.74M36.37,36.91c2.89,0,5.23-2.34,5.23-5.23s-2.34-5.23-5.23-5.23-5.23,2.34-5.23,5.23,2.34,5.23,5.23,5.23M34.63,40.39c-3.85,0-6.97,3.12-6.97,6.97h17.42c0-3.85-3.12-6.97-6.97-6.97h-3.48Z"/>
    </g>
  </g>
</svg>