<svg width="18" height="17" viewBox="0 0 18 17" fill="none" xmlns="http://www.w3.org/2000/svg">
<path d="M0.568873 17H14.2361C14.551 17 14.805 16.7468 14.805 16.4329V14.3679C14.805 11.117 12.6834 8.35645 9.74955 7.37564C10.7925 6.63915 11.4776 5.43008 11.4776 4.06053C11.4776 1.82073 9.64937 0 7.4025 0C5.15563 0 3.32737 1.82251 3.32737 4.06053C3.32737 5.4283 4.01252 6.63915 5.05546 7.37564C2.12165 8.35645 0 11.117 0 14.3679V16.4329C0 16.745 0.254025 17 0.568873 17ZM4.46512 4.06053C4.46512 2.44666 5.78354 1.13238 7.4025 1.13238C9.02147 1.13238 10.3399 2.44666 10.3399 4.06053C10.3399 5.67439 9.02147 6.98867 7.4025 6.98867C5.78354 6.98867 4.46512 5.67439 4.46512 4.06053ZM1.13775 14.3679C1.13775 10.9244 3.94812 8.12284 7.4025 8.12284C10.8569 8.12284 13.6673 10.9244 13.6673 14.3679V15.8676H1.13775V14.3679Z" fill="#67688C"/>
<path d="M17.4634 1.58901H13.0304C12.7335 1.58901 12.4938 1.35005 12.4938 1.05403C12.4938 0.758002 12.7335 0.519043 13.0304 0.519043H17.4634C17.7603 0.519043 18 0.758002 18 1.05403C18 1.35005 17.7603 1.58901 17.4634 1.58901Z" fill="#67688C"/>
<path d="M17.4634 4.02505H13.0304C12.7335 4.02505 12.4938 3.78609 12.4938 3.49006C12.4938 3.19404 12.7335 2.95508 13.0304 2.95508H17.4634C17.7603 2.95508 18 3.19404 18 3.49006C18 3.78609 17.7603 4.02505 17.4634 4.02505Z" fill="#67688C"/>
<path d="M17.4634 6.46059H13.0304C12.7335 6.46059 12.4938 6.22163 12.4938 5.92561C12.4938 5.62958 12.7335 5.39062 13.0304 5.39062H17.4634C17.7603 5.39062 18 5.62958 18 5.92561C18 6.22163 17.7603 6.46059 17.4634 6.46059Z" fill="#67688C"/>
</svg>
