<svg width="18" height="18" viewBox="0 0 18 18" fill="none" xmlns="http://www.w3.org/2000/svg">
<path d="M0.568873 18H14.2361C14.551 18 14.805 17.7319 14.805 17.3996V15.213C14.805 11.7709 12.6834 8.848 9.74955 7.8095C10.7925 7.02969 11.4776 5.7495 11.4776 4.29938C11.4776 1.92783 9.64937 0 7.4025 0C5.15563 0 3.32737 1.92972 3.32737 4.29938C3.32737 5.74761 4.01252 7.02969 5.05546 7.8095C2.12165 8.848 0 11.7709 0 15.213V17.3996C0 17.73 0.254025 18 0.568873 18Z" fill="#2E3BED"/>
<path d="M17.4632 1.68173H13.0303C12.7334 1.68173 12.4937 1.42872 12.4937 1.11528C12.4937 0.801844 12.7334 0.548828 13.0303 0.548828H17.4632C17.7602 0.548828 17.9999 0.801844 17.9999 1.11528C17.9999 1.42872 17.7602 1.68173 17.4632 1.68173Z" fill="#2E3BED"/>
<path d="M17.4632 4.26181H13.0303C12.7334 4.26181 12.4937 4.0088 12.4937 3.69536C12.4937 3.38192 12.7334 3.12891 13.0303 3.12891H17.4632C17.7602 3.12891 17.9999 3.38192 17.9999 3.69536C17.9999 4.0088 17.7602 4.26181 17.4632 4.26181Z" fill="#2E3BED"/>
<path d="M17.4632 6.83994H13.0303C12.7334 6.83994 12.4937 6.58692 12.4937 6.27348C12.4937 5.96005 12.7334 5.70703 13.0303 5.70703H17.4632C17.7602 5.70703 17.9999 5.96005 17.9999 6.27348C17.9999 6.58692 17.7602 6.83994 17.4632 6.83994Z" fill="#2E3BED"/>
</svg>
